<svg xmlns="http://www.w3.org/2000/svg" xml:space="preserve" style="fill-rule:evenodd;clip-rule:evenodd" viewBox="0 0 338 283"><path d="m30.816 257.756 45.601-78.982 45.599 78.982zm92.069 0 45.599-78.982 45.599 78.982zm91.643 0 45.599-78.982 45.6 78.982zM76.892 177.973l45.599-78.98 45.601 78.98zm91.766 0 45.6-78.98 45.6 78.98zm-45.737-79.577 45.6-78.98 45.597 78.98z" style="fill:none;fill-rule:nonzero;stroke:#006fff;stroke-opacity:.8;stroke-width:1px"/><circle cx="168.317" cy="18.147" r="6.044" style="stroke:#000;stroke-width:1px"/><circle cx="214.102" cy="98.498" r="6.045" style="stroke:#000;stroke-width:1px"/><circle cx="259.858" cy="178.241" r="6.045" style="stroke:#000;stroke-width:1px"/><circle cx="305.727" cy="257.757" r="6.045" style="stroke:#000;stroke-width:1px"/><circle cx="214.102" cy="257.757" r="6.045" style="stroke:#000;stroke-width:1px"/><circle cx="123.237" cy="257.757" r="6.044" style="stroke:#000;stroke-width:1px"/><circle cx="30.816" cy="257.757" r="6.045" style="stroke:#000;stroke-width:1px"/><circle cx="76.892" cy="178.241" r="6.045" style="stroke:#000;stroke-width:1px"/><circle cx="168.317" cy="178.241" r="6.045" style="stroke:#000;stroke-width:1px"/><circle cx="123.237" cy="98.498" r="6.044" style="stroke:#000;stroke-width:1px"/><path d="M0 0h337.667v282.667H0z" style="fill:none"/></svg>