<svg xmlns="http://www.w3.org/2000/svg" viewBox="0 0 1024 1024" width="1024" height="1024"><g stroke="#000" stroke-linecap="round" stroke-linejoin="round" fill="none"><line x1="512.0" y1="280.0" x2="250.0" y2="560.0" stroke-width="34"/><line x1="512.0" y1="280.0" x2="774.0" y2="560.0" stroke-width="34"/><line x1="480.6" y1="313.6" x2="444.1" y2="279.4" stroke-width="22"/><line x1="440.7" y1="356.2" x2="404.2" y2="322.0" stroke-width="22"/><line x1="400.9" y1="398.7" x2="364.4" y2="364.6" stroke-width="22"/><line x1="361.1" y1="441.3" x2="324.6" y2="407.1" stroke-width="22"/><line x1="321.3" y1="483.8" x2="284.8" y2="449.7" stroke-width="22"/><line x1="281.4" y1="526.4" x2="244.9" y2="492.2" stroke-width="22"/><line x1="543.4" y1="313.6" x2="579.9" y2="279.4" stroke-width="22"/><line x1="583.3" y1="356.2" x2="619.8" y2="322.0" stroke-width="22"/><line x1="623.1" y1="398.7" x2="659.6" y2="364.6" stroke-width="22"/><line x1="662.9" y1="441.3" x2="699.4" y2="407.1" stroke-width="22"/><line x1="702.7" y1="483.8" x2="739.2" y2="449.7" stroke-width="22"/><line x1="742.6" y1="526.4" x2="779.1" y2="492.2" stroke-width="22"/><line x1="512.0" y1="280.0" x2="512.0" y2="700.0" stroke-width="34"/><line x1="512.0" y1="460.0" x2="465.0" y2="420.0" stroke-width="26"/><line x1="512.0" y1="460.0" x2="559.0" y2="420.0" stroke-width="26"/><line x1="512.0" y1="560.0" x2="465.0" y2="520.0" stroke-width="26"/><line x1="512.0" y1="560.0" x2="559.0" y2="520.0" stroke-width="26"/><line x1="512.0" y1="660.0" x2="465.0" y2="620.0" stroke-width="26"/><line x1="512.0" y1="660.0" x2="559.0" y2="620.0" stroke-width="26"/></g></svg>